<mxfile host="Electron" agent="Mozilla/5.0 (Windows NT 10.0; Win64; x64) AppleWebKit/537.36 (KHTML, like Gecko) draw.io/24.7.5 Chrome/126.0.6478.183 Electron/31.3.0 Safari/537.36" version="24.7.5">
  <diagram name="Page-1" id="3miMnbA-dPHx460UJwUq">
    <mxGraphModel dx="1185" dy="683" grid="1" gridSize="10" guides="1" tooltips="1" connect="1" arrows="1" fold="1" page="1" pageScale="1" pageWidth="827" pageHeight="1169" math="0" shadow="0">
      <root>
        <mxCell id="0" />
        <mxCell id="1" parent="0" />
        <mxCell id="31egEnNJtw1WzJa9qonf-28" value="" style="endArrow=block;html=1;rounded=0;startSize=8;endFill=0;" parent="1" edge="1">
          <mxGeometry width="50" height="50" relative="1" as="geometry">
            <mxPoint x="240" y="500" as="sourcePoint" />
            <mxPoint x="240" y="450" as="targetPoint" />
          </mxGeometry>
        </mxCell>
        <mxCell id="31egEnNJtw1WzJa9qonf-29" value="" style="endArrow=block;html=1;rounded=0;startSize=8;endFill=0;exitX=0.066;exitY=-0.003;exitDx=0;exitDy=0;exitPerimeter=0;" parent="1" source="Sn2KiwHPf4hYNn7UxKjK-7" edge="1">
          <mxGeometry width="50" height="50" relative="1" as="geometry">
            <mxPoint x="250" y="330" as="sourcePoint" />
            <mxPoint x="240" y="300" as="targetPoint" />
          </mxGeometry>
        </mxCell>
        <mxCell id="Sn2KiwHPf4hYNn7UxKjK-3" value="" style="rounded=0;whiteSpace=wrap;html=1;" vertex="1" parent="1">
          <mxGeometry x="200" y="210" width="610" height="90" as="geometry" />
        </mxCell>
        <mxCell id="qTtfOa7f_Io7_sfD8xKu-3" value="" style="endArrow=none;dashed=1;html=1;dashPattern=1 3;strokeWidth=2;rounded=0;" parent="1" edge="1">
          <mxGeometry width="50" height="50" relative="1" as="geometry">
            <mxPoint x="350" y="220" as="sourcePoint" />
            <mxPoint x="350" y="300" as="targetPoint" />
            <Array as="points">
              <mxPoint x="350" y="260" />
            </Array>
          </mxGeometry>
        </mxCell>
        <mxCell id="qTtfOa7f_Io7_sfD8xKu-4" value="&lt;font style=&quot;font-size: 19px;&quot;&gt;Module&lt;/font&gt;&lt;div style=&quot;font-size: 19px;&quot;&gt;&lt;font style=&quot;font-size: 19px;&quot;&gt;Engine&lt;/font&gt;&lt;/div&gt;" style="rounded=0;whiteSpace=wrap;html=1;" parent="1" vertex="1">
          <mxGeometry x="370" y="230" width="120" height="60" as="geometry" />
        </mxCell>
        <mxCell id="qTtfOa7f_Io7_sfD8xKu-5" value="" style="endArrow=block;html=1;rounded=0;exitX=1;exitY=0.25;exitDx=0;exitDy=0;entryX=0;entryY=0.25;entryDx=0;entryDy=0;startSize=8;endFill=0;" parent="1" source="qTtfOa7f_Io7_sfD8xKu-2" target="qTtfOa7f_Io7_sfD8xKu-4" edge="1">
          <mxGeometry width="50" height="50" relative="1" as="geometry">
            <mxPoint x="330" y="430" as="sourcePoint" />
            <mxPoint x="380" y="380" as="targetPoint" />
          </mxGeometry>
        </mxCell>
        <mxCell id="qTtfOa7f_Io7_sfD8xKu-6" value="" style="endArrow=block;html=1;rounded=0;exitX=0;exitY=0.75;exitDx=0;exitDy=0;entryX=1;entryY=0.75;entryDx=0;entryDy=0;startSize=8;endFill=0;" parent="1" source="qTtfOa7f_Io7_sfD8xKu-4" target="qTtfOa7f_Io7_sfD8xKu-2" edge="1">
          <mxGeometry width="50" height="50" relative="1" as="geometry">
            <mxPoint x="360" y="380" as="sourcePoint" />
            <mxPoint x="360" y="440" as="targetPoint" />
          </mxGeometry>
        </mxCell>
        <mxCell id="qTtfOa7f_Io7_sfD8xKu-7" value="&lt;span style=&quot;font-size: 19px;&quot;&gt;Link&lt;/span&gt;&lt;div&gt;&lt;span style=&quot;font-size: 19px;&quot;&gt;Library A&lt;/span&gt;&lt;/div&gt;" style="rounded=0;whiteSpace=wrap;html=1;" parent="1" vertex="1">
          <mxGeometry x="520" y="230" width="120" height="60" as="geometry" />
        </mxCell>
        <mxCell id="qTtfOa7f_Io7_sfD8xKu-8" value="" style="endArrow=none;dashed=1;html=1;dashPattern=1 3;strokeWidth=2;rounded=0;" parent="1" edge="1">
          <mxGeometry width="50" height="50" relative="1" as="geometry">
            <mxPoint x="660" y="300" as="sourcePoint" />
            <mxPoint x="660" y="210" as="targetPoint" />
          </mxGeometry>
        </mxCell>
        <mxCell id="qTtfOa7f_Io7_sfD8xKu-9" value="&lt;div&gt;&lt;font style=&quot;font-size: 19px;&quot;&gt;Generic&lt;/font&gt;&lt;/div&gt;&lt;font style=&quot;font-size: 19px;&quot;&gt;Hardware&lt;/font&gt;" style="rounded=0;whiteSpace=wrap;html=1;" parent="1" vertex="1">
          <mxGeometry x="680" y="230" width="120" height="60" as="geometry" />
        </mxCell>
        <mxCell id="qTtfOa7f_Io7_sfD8xKu-10" value="" style="endArrow=block;html=1;rounded=0;exitX=1;exitY=0.25;exitDx=0;exitDy=0;entryX=0;entryY=0.25;entryDx=0;entryDy=0;startSize=8;endFill=0;" parent="1" source="qTtfOa7f_Io7_sfD8xKu-7" target="qTtfOa7f_Io7_sfD8xKu-9" edge="1">
          <mxGeometry width="50" height="50" relative="1" as="geometry">
            <mxPoint x="300" y="660" as="sourcePoint" />
            <mxPoint x="350" y="610" as="targetPoint" />
          </mxGeometry>
        </mxCell>
        <mxCell id="qTtfOa7f_Io7_sfD8xKu-11" value="" style="endArrow=block;html=1;rounded=0;exitX=0;exitY=0.75;exitDx=0;exitDy=0;entryX=1;entryY=0.75;entryDx=0;entryDy=0;startSize=8;endFill=0;" parent="1" source="qTtfOa7f_Io7_sfD8xKu-9" target="qTtfOa7f_Io7_sfD8xKu-7" edge="1">
          <mxGeometry width="50" height="50" relative="1" as="geometry">
            <mxPoint x="330" y="610" as="sourcePoint" />
            <mxPoint x="330" y="670" as="targetPoint" />
          </mxGeometry>
        </mxCell>
        <mxCell id="qTtfOa7f_Io7_sfD8xKu-12" value="" style="endArrow=block;html=1;rounded=0;exitX=0;exitY=0.75;exitDx=0;exitDy=0;entryX=1;entryY=0.75;entryDx=0;entryDy=0;startSize=8;endFill=0;dashed=1;" parent="1" source="qTtfOa7f_Io7_sfD8xKu-7" target="qTtfOa7f_Io7_sfD8xKu-4" edge="1">
          <mxGeometry width="50" height="50" relative="1" as="geometry">
            <mxPoint x="420" y="440" as="sourcePoint" />
            <mxPoint x="420" y="380" as="targetPoint" />
          </mxGeometry>
        </mxCell>
        <mxCell id="qTtfOa7f_Io7_sfD8xKu-13" value="" style="endArrow=block;html=1;rounded=0;exitX=1;exitY=0.25;exitDx=0;exitDy=0;entryX=0;entryY=0.25;entryDx=0;entryDy=0;startSize=8;endFill=0;dashed=1;" parent="1" source="qTtfOa7f_Io7_sfD8xKu-4" target="qTtfOa7f_Io7_sfD8xKu-7" edge="1">
          <mxGeometry width="50" height="50" relative="1" as="geometry">
            <mxPoint x="360" y="380" as="sourcePoint" />
            <mxPoint x="360" y="440" as="targetPoint" />
          </mxGeometry>
        </mxCell>
        <mxCell id="31egEnNJtw1WzJa9qonf-1" value="&lt;span style=&quot;font-size: 19px;&quot;&gt;Deployment&lt;/span&gt;&lt;div&gt;&lt;span style=&quot;font-size: 19px;&quot;&gt;Entity&lt;/span&gt;&lt;/div&gt;" style="rounded=0;whiteSpace=wrap;html=1;" parent="1" vertex="1">
          <mxGeometry x="20" y="380" width="120" height="60" as="geometry" />
        </mxCell>
        <mxCell id="31egEnNJtw1WzJa9qonf-2" value="&lt;font style=&quot;font-size: 19px;&quot;&gt;Generic&lt;/font&gt;&lt;div style=&quot;font-size: 19px;&quot;&gt;&lt;font style=&quot;font-size: 19px;&quot;&gt;Agent&lt;/font&gt;&lt;/div&gt;" style="rounded=0;whiteSpace=wrap;html=1;" parent="1" vertex="1">
          <mxGeometry x="210" y="380" width="120" height="60" as="geometry" />
        </mxCell>
        <mxCell id="31egEnNJtw1WzJa9qonf-3" value="" style="endArrow=none;dashed=1;html=1;dashPattern=1 3;strokeWidth=2;rounded=0;" parent="1" edge="1">
          <mxGeometry width="50" height="50" relative="1" as="geometry">
            <mxPoint x="350" y="370" as="sourcePoint" />
            <mxPoint x="350" y="450" as="targetPoint" />
            <Array as="points">
              <mxPoint x="350" y="410" />
            </Array>
          </mxGeometry>
        </mxCell>
        <mxCell id="31egEnNJtw1WzJa9qonf-4" value="&lt;font style=&quot;font-size: 19px;&quot;&gt;Module&lt;/font&gt;&lt;div style=&quot;font-size: 19px;&quot;&gt;&lt;font style=&quot;font-size: 19px;&quot;&gt;Engine&lt;/font&gt;&lt;/div&gt;" style="rounded=0;whiteSpace=wrap;html=1;" parent="1" vertex="1">
          <mxGeometry x="370" y="380" width="120" height="60" as="geometry" />
        </mxCell>
        <mxCell id="31egEnNJtw1WzJa9qonf-5" value="" style="endArrow=block;html=1;rounded=0;exitX=1;exitY=0.25;exitDx=0;exitDy=0;entryX=0;entryY=0.25;entryDx=0;entryDy=0;startSize=8;endFill=0;" parent="1" source="31egEnNJtw1WzJa9qonf-2" target="31egEnNJtw1WzJa9qonf-4" edge="1">
          <mxGeometry width="50" height="50" relative="1" as="geometry">
            <mxPoint x="330" y="580" as="sourcePoint" />
            <mxPoint x="380" y="530" as="targetPoint" />
          </mxGeometry>
        </mxCell>
        <mxCell id="31egEnNJtw1WzJa9qonf-6" value="" style="endArrow=block;html=1;rounded=0;exitX=0;exitY=0.75;exitDx=0;exitDy=0;entryX=1;entryY=0.75;entryDx=0;entryDy=0;startSize=8;endFill=0;" parent="1" source="31egEnNJtw1WzJa9qonf-4" target="31egEnNJtw1WzJa9qonf-2" edge="1">
          <mxGeometry width="50" height="50" relative="1" as="geometry">
            <mxPoint x="360" y="530" as="sourcePoint" />
            <mxPoint x="360" y="590" as="targetPoint" />
          </mxGeometry>
        </mxCell>
        <mxCell id="31egEnNJtw1WzJa9qonf-7" value="&lt;span style=&quot;font-size: 19px;&quot;&gt;Link&lt;/span&gt;&lt;div&gt;&lt;span style=&quot;font-size: 19px;&quot;&gt;Library B&lt;/span&gt;&lt;/div&gt;" style="rounded=0;whiteSpace=wrap;html=1;" parent="1" vertex="1">
          <mxGeometry x="520" y="380" width="120" height="60" as="geometry" />
        </mxCell>
        <mxCell id="31egEnNJtw1WzJa9qonf-8" value="" style="endArrow=none;dashed=1;html=1;dashPattern=1 3;strokeWidth=2;rounded=0;" parent="1" edge="1">
          <mxGeometry width="50" height="50" relative="1" as="geometry">
            <mxPoint x="660" y="450" as="sourcePoint" />
            <mxPoint x="660" y="370" as="targetPoint" />
          </mxGeometry>
        </mxCell>
        <mxCell id="31egEnNJtw1WzJa9qonf-9" value="&lt;div&gt;&lt;font style=&quot;font-size: 19px;&quot;&gt;Generic&lt;/font&gt;&lt;/div&gt;&lt;font style=&quot;font-size: 19px;&quot;&gt;Hardware&lt;/font&gt;" style="rounded=0;whiteSpace=wrap;html=1;" parent="1" vertex="1">
          <mxGeometry x="680" y="380" width="120" height="60" as="geometry" />
        </mxCell>
        <mxCell id="31egEnNJtw1WzJa9qonf-10" value="" style="endArrow=block;html=1;rounded=0;exitX=1;exitY=0.25;exitDx=0;exitDy=0;entryX=0;entryY=0.25;entryDx=0;entryDy=0;startSize=8;endFill=0;" parent="1" source="31egEnNJtw1WzJa9qonf-7" target="31egEnNJtw1WzJa9qonf-9" edge="1">
          <mxGeometry width="50" height="50" relative="1" as="geometry">
            <mxPoint x="300" y="810" as="sourcePoint" />
            <mxPoint x="350" y="760" as="targetPoint" />
          </mxGeometry>
        </mxCell>
        <mxCell id="31egEnNJtw1WzJa9qonf-11" value="" style="endArrow=block;html=1;rounded=0;exitX=0;exitY=0.75;exitDx=0;exitDy=0;entryX=1;entryY=0.75;entryDx=0;entryDy=0;startSize=8;endFill=0;" parent="1" source="31egEnNJtw1WzJa9qonf-9" target="31egEnNJtw1WzJa9qonf-7" edge="1">
          <mxGeometry width="50" height="50" relative="1" as="geometry">
            <mxPoint x="330" y="760" as="sourcePoint" />
            <mxPoint x="330" y="820" as="targetPoint" />
          </mxGeometry>
        </mxCell>
        <mxCell id="31egEnNJtw1WzJa9qonf-12" value="" style="endArrow=block;html=1;rounded=0;exitX=0;exitY=0.75;exitDx=0;exitDy=0;entryX=1;entryY=0.75;entryDx=0;entryDy=0;startSize=8;endFill=0;dashed=1;" parent="1" source="31egEnNJtw1WzJa9qonf-7" target="31egEnNJtw1WzJa9qonf-4" edge="1">
          <mxGeometry width="50" height="50" relative="1" as="geometry">
            <mxPoint x="420" y="590" as="sourcePoint" />
            <mxPoint x="420" y="530" as="targetPoint" />
          </mxGeometry>
        </mxCell>
        <mxCell id="31egEnNJtw1WzJa9qonf-13" value="" style="endArrow=block;html=1;rounded=0;exitX=1;exitY=0.25;exitDx=0;exitDy=0;entryX=0;entryY=0.25;entryDx=0;entryDy=0;startSize=8;endFill=0;dashed=1;" parent="1" source="31egEnNJtw1WzJa9qonf-4" target="31egEnNJtw1WzJa9qonf-7" edge="1">
          <mxGeometry width="50" height="50" relative="1" as="geometry">
            <mxPoint x="360" y="530" as="sourcePoint" />
            <mxPoint x="360" y="590" as="targetPoint" />
          </mxGeometry>
        </mxCell>
        <mxCell id="31egEnNJtw1WzJa9qonf-14" value="&lt;font style=&quot;font-size: 19px;&quot;&gt;Generic&lt;/font&gt;&lt;div style=&quot;font-size: 19px;&quot;&gt;&lt;font style=&quot;font-size: 19px;&quot;&gt;Agent&lt;/font&gt;&lt;/div&gt;" style="rounded=0;whiteSpace=wrap;html=1;" parent="1" vertex="1">
          <mxGeometry x="210" y="530" width="120" height="60" as="geometry" />
        </mxCell>
        <mxCell id="31egEnNJtw1WzJa9qonf-15" value="" style="endArrow=none;dashed=1;html=1;dashPattern=1 3;strokeWidth=2;rounded=0;" parent="1" edge="1">
          <mxGeometry width="50" height="50" relative="1" as="geometry">
            <mxPoint x="350" y="520" as="sourcePoint" />
            <mxPoint x="350" y="600" as="targetPoint" />
            <Array as="points">
              <mxPoint x="350" y="560" />
            </Array>
          </mxGeometry>
        </mxCell>
        <mxCell id="31egEnNJtw1WzJa9qonf-16" value="&lt;font style=&quot;font-size: 19px;&quot;&gt;Module&lt;/font&gt;&lt;div style=&quot;font-size: 19px;&quot;&gt;&lt;font style=&quot;font-size: 19px;&quot;&gt;Engine&lt;/font&gt;&lt;/div&gt;" style="rounded=0;whiteSpace=wrap;html=1;" parent="1" vertex="1">
          <mxGeometry x="370" y="530" width="120" height="60" as="geometry" />
        </mxCell>
        <mxCell id="31egEnNJtw1WzJa9qonf-17" value="" style="endArrow=block;html=1;rounded=0;exitX=1;exitY=0.25;exitDx=0;exitDy=0;entryX=0;entryY=0.25;entryDx=0;entryDy=0;startSize=8;endFill=0;" parent="1" source="31egEnNJtw1WzJa9qonf-14" target="31egEnNJtw1WzJa9qonf-16" edge="1">
          <mxGeometry width="50" height="50" relative="1" as="geometry">
            <mxPoint x="330" y="730" as="sourcePoint" />
            <mxPoint x="380" y="680" as="targetPoint" />
          </mxGeometry>
        </mxCell>
        <mxCell id="31egEnNJtw1WzJa9qonf-18" value="" style="endArrow=block;html=1;rounded=0;exitX=0;exitY=0.75;exitDx=0;exitDy=0;entryX=1;entryY=0.75;entryDx=0;entryDy=0;startSize=8;endFill=0;" parent="1" source="31egEnNJtw1WzJa9qonf-16" target="31egEnNJtw1WzJa9qonf-14" edge="1">
          <mxGeometry width="50" height="50" relative="1" as="geometry">
            <mxPoint x="360" y="680" as="sourcePoint" />
            <mxPoint x="360" y="740" as="targetPoint" />
          </mxGeometry>
        </mxCell>
        <mxCell id="31egEnNJtw1WzJa9qonf-19" value="&lt;span style=&quot;font-size: 19px;&quot;&gt;Link&lt;/span&gt;&lt;div&gt;&lt;span style=&quot;font-size: 19px;&quot;&gt;Library C&lt;/span&gt;&lt;/div&gt;" style="rounded=0;whiteSpace=wrap;html=1;" parent="1" vertex="1">
          <mxGeometry x="520" y="530" width="120" height="60" as="geometry" />
        </mxCell>
        <mxCell id="31egEnNJtw1WzJa9qonf-20" value="" style="endArrow=none;dashed=1;html=1;dashPattern=1 3;strokeWidth=2;rounded=0;" parent="1" edge="1">
          <mxGeometry width="50" height="50" relative="1" as="geometry">
            <mxPoint x="660" y="600" as="sourcePoint" />
            <mxPoint x="660" y="520" as="targetPoint" />
          </mxGeometry>
        </mxCell>
        <mxCell id="31egEnNJtw1WzJa9qonf-21" value="&lt;div&gt;&lt;font style=&quot;font-size: 19px;&quot;&gt;Generic&lt;/font&gt;&lt;/div&gt;&lt;font style=&quot;font-size: 19px;&quot;&gt;Hardware&lt;/font&gt;" style="rounded=0;whiteSpace=wrap;html=1;" parent="1" vertex="1">
          <mxGeometry x="680" y="530" width="120" height="60" as="geometry" />
        </mxCell>
        <mxCell id="31egEnNJtw1WzJa9qonf-22" value="" style="endArrow=block;html=1;rounded=0;exitX=1;exitY=0.25;exitDx=0;exitDy=0;entryX=0;entryY=0.25;entryDx=0;entryDy=0;startSize=8;endFill=0;" parent="1" source="31egEnNJtw1WzJa9qonf-19" target="31egEnNJtw1WzJa9qonf-21" edge="1">
          <mxGeometry width="50" height="50" relative="1" as="geometry">
            <mxPoint x="300" y="960" as="sourcePoint" />
            <mxPoint x="350" y="910" as="targetPoint" />
          </mxGeometry>
        </mxCell>
        <mxCell id="31egEnNJtw1WzJa9qonf-23" value="" style="endArrow=block;html=1;rounded=0;exitX=0;exitY=0.75;exitDx=0;exitDy=0;entryX=1;entryY=0.75;entryDx=0;entryDy=0;startSize=8;endFill=0;" parent="1" source="31egEnNJtw1WzJa9qonf-21" target="31egEnNJtw1WzJa9qonf-19" edge="1">
          <mxGeometry width="50" height="50" relative="1" as="geometry">
            <mxPoint x="330" y="910" as="sourcePoint" />
            <mxPoint x="330" y="970" as="targetPoint" />
          </mxGeometry>
        </mxCell>
        <mxCell id="31egEnNJtw1WzJa9qonf-24" value="" style="endArrow=block;html=1;rounded=0;exitX=0;exitY=0.75;exitDx=0;exitDy=0;entryX=1;entryY=0.75;entryDx=0;entryDy=0;startSize=8;endFill=0;dashed=1;" parent="1" source="31egEnNJtw1WzJa9qonf-19" target="31egEnNJtw1WzJa9qonf-16" edge="1">
          <mxGeometry width="50" height="50" relative="1" as="geometry">
            <mxPoint x="420" y="740" as="sourcePoint" />
            <mxPoint x="420" y="680" as="targetPoint" />
          </mxGeometry>
        </mxCell>
        <mxCell id="31egEnNJtw1WzJa9qonf-25" value="" style="endArrow=block;html=1;rounded=0;exitX=1;exitY=0.25;exitDx=0;exitDy=0;entryX=0;entryY=0.25;entryDx=0;entryDy=0;startSize=8;endFill=0;dashed=1;" parent="1" source="31egEnNJtw1WzJa9qonf-16" target="31egEnNJtw1WzJa9qonf-19" edge="1">
          <mxGeometry width="50" height="50" relative="1" as="geometry">
            <mxPoint x="360" y="680" as="sourcePoint" />
            <mxPoint x="360" y="740" as="targetPoint" />
          </mxGeometry>
        </mxCell>
        <mxCell id="31egEnNJtw1WzJa9qonf-26" value="" style="endArrow=block;html=1;rounded=0;startSize=8;endFill=0;entryX=0.164;entryY=0;entryDx=0;entryDy=0;entryPerimeter=0;" parent="1" target="Sn2KiwHPf4hYNn7UxKjK-7" edge="1">
          <mxGeometry width="50" height="50" relative="1" as="geometry">
            <mxPoint x="300" y="320" as="sourcePoint" />
            <mxPoint x="310" y="340" as="targetPoint" />
            <Array as="points">
              <mxPoint x="300" y="300" />
            </Array>
          </mxGeometry>
        </mxCell>
        <mxCell id="Sn2KiwHPf4hYNn7UxKjK-10" value="&lt;font style=&quot;font-size: 14px;&quot;&gt;FIPA Compliant Messages&lt;/font&gt;" style="edgeLabel;html=1;align=center;verticalAlign=middle;resizable=0;points=[];" vertex="1" connectable="0" parent="31egEnNJtw1WzJa9qonf-26">
          <mxGeometry x="0.0171" relative="1" as="geometry">
            <mxPoint x="-30" y="9" as="offset" />
          </mxGeometry>
        </mxCell>
        <mxCell id="31egEnNJtw1WzJa9qonf-27" value="" style="endArrow=block;html=1;rounded=0;startSize=8;endFill=0;entryX=0.164;entryY=0;entryDx=0;entryDy=0;entryPerimeter=0;" parent="1" target="Sn2KiwHPf4hYNn7UxKjK-9" edge="1">
          <mxGeometry width="50" height="50" relative="1" as="geometry">
            <mxPoint x="300" y="450" as="sourcePoint" />
            <mxPoint x="280" y="470" as="targetPoint" />
            <Array as="points" />
          </mxGeometry>
        </mxCell>
        <mxCell id="Sn2KiwHPf4hYNn7UxKjK-12" value="&lt;font style=&quot;font-size: 14px;&quot;&gt;FIPA Compliant Messages&lt;/font&gt;" style="edgeLabel;html=1;align=center;verticalAlign=middle;resizable=0;points=[];" vertex="1" connectable="0" parent="31egEnNJtw1WzJa9qonf-27">
          <mxGeometry x="0.0475" y="1" relative="1" as="geometry">
            <mxPoint x="-30" y="-2" as="offset" />
          </mxGeometry>
        </mxCell>
        <mxCell id="31egEnNJtw1WzJa9qonf-30" value="" style="endArrow=block;html=1;rounded=0;exitX=1;exitY=0.25;exitDx=0;exitDy=0;startSize=8;endFill=0;" parent="1" source="31egEnNJtw1WzJa9qonf-1" edge="1">
          <mxGeometry width="50" height="50" relative="1" as="geometry">
            <mxPoint x="210" y="360" as="sourcePoint" />
            <mxPoint x="200" y="255" as="targetPoint" />
          </mxGeometry>
        </mxCell>
        <mxCell id="31egEnNJtw1WzJa9qonf-31" value="" style="endArrow=block;html=1;rounded=0;exitX=1;exitY=0.5;exitDx=0;exitDy=0;entryX=0;entryY=0.5;entryDx=0;entryDy=0;startSize=8;endFill=0;" parent="1" source="31egEnNJtw1WzJa9qonf-1" edge="1">
          <mxGeometry width="50" height="50" relative="1" as="geometry">
            <mxPoint x="170" y="420" as="sourcePoint" />
            <mxPoint x="200" y="410" as="targetPoint" />
          </mxGeometry>
        </mxCell>
        <mxCell id="31egEnNJtw1WzJa9qonf-32" value="" style="endArrow=block;html=1;rounded=0;exitX=1;exitY=0.75;exitDx=0;exitDy=0;entryX=0;entryY=0.5;entryDx=0;entryDy=0;startSize=8;endFill=0;" parent="1" source="31egEnNJtw1WzJa9qonf-1" target="Sn2KiwHPf4hYNn7UxKjK-9" edge="1">
          <mxGeometry width="50" height="50" relative="1" as="geometry">
            <mxPoint x="170" y="470" as="sourcePoint" />
            <mxPoint x="200" y="540" as="targetPoint" />
          </mxGeometry>
        </mxCell>
        <mxCell id="Sn2KiwHPf4hYNn7UxKjK-6" value="&amp;nbsp; &amp;nbsp;Cyber-physical Entity" style="swimlane;whiteSpace=wrap;html=1;startSize=20;align=left;" vertex="1" parent="1">
          <mxGeometry x="200" y="200" width="610" height="100" as="geometry" />
        </mxCell>
        <mxCell id="qTtfOa7f_Io7_sfD8xKu-2" value="&lt;font style=&quot;font-size: 19px;&quot;&gt;Generic&lt;/font&gt;&lt;div style=&quot;font-size: 19px;&quot;&gt;&lt;font style=&quot;font-size: 19px;&quot;&gt;Agent&lt;/font&gt;&lt;/div&gt;" style="rounded=0;whiteSpace=wrap;html=1;" parent="Sn2KiwHPf4hYNn7UxKjK-6" vertex="1">
          <mxGeometry x="10" y="30" width="120" height="60" as="geometry" />
        </mxCell>
        <mxCell id="Sn2KiwHPf4hYNn7UxKjK-7" value="&amp;nbsp; &amp;nbsp;Cyber-physical Entity" style="swimlane;whiteSpace=wrap;html=1;startSize=20;align=left;" vertex="1" parent="1">
          <mxGeometry x="200" y="350" width="610" height="100" as="geometry" />
        </mxCell>
        <mxCell id="Sn2KiwHPf4hYNn7UxKjK-9" value="&amp;nbsp; &amp;nbsp;Cyber-physical Entity" style="swimlane;whiteSpace=wrap;html=1;startSize=20;align=left;" vertex="1" parent="1">
          <mxGeometry x="200" y="500" width="610" height="100" as="geometry" />
        </mxCell>
      </root>
    </mxGraphModel>
  </diagram>
</mxfile>
